<?xml version="1.0" encoding="utf-8"?>
<svg version="1.1" viewBox="0 0 2515.6 3780" xmlns="http://www.w3.org/2000/svg">
<!-- Generator: Adobe Illustrator 29.3.1, SVG Export Plug-In . SVG Version: 2.1.0 Build 151)  -->
<defs>
<style>
      .st0 {
        fill: #edb38c;
      }

      .st1 {
        fill: #ffe5b4;
      }

      .st2, .st3 {
        fill: #231f20;
      }

      .st4 {
        fill: #fff;
      }

      .st5 {
        fill: #873a1e;
      }

      .st6 {
        fill: #d65b27;
      }

      .st7 {
        fill: #cd5928;
      }

      .st8 {
        stroke: #231f20;
        stroke-miterlimit: 10;
        stroke-width: 2px;
      }

      .st8, .st9 {
        fill: #cc5728;
      }

      .st3 {
        font-family: MyriadPro-Regular, 'Myriad Pro';
        font-size: 12px;
      }

      .st10 {
        fill: #cd5828;
      }

      .st11 {
        fill: #4a308f;
      }

      .st12 {
        fill: #492e90;
      }
    </style>
</defs>
<g id="Layer_10">
<rect class="st1" height="3780" width="2520"/>
</g>
<g id="Layer_11">
<text class="st3" transform="translate(1912.9 1688.8)"><tspan x="0" y="0">"Vibe"</tspan><tspan x="0" y="28.8"/></text>
<text class="st3" transform="translate(1912.9 1688.8)"><tspan x="0" y="0">"Vibe"</tspan><tspan x="0" y="28.8"/></text>
<text class="st3" transform="translate(1912.9 1688.8)"><tspan x="0" y="0">"Vibe"</tspan><tspan x="0" y="28.8"/></text>
<rect class="st1" height="72.7" width="72.7" x="1888.6" y="1658.8"/>
</g>
<g id="Layer_9">
<path class="st12" d="M153.4,2622.4l-10.6,55.9-9.6,109,3.3,63.3,9.2,83.2-8.1,35.3-47.5,266.5-17.3,108.9-16.4,86.3-13.8,59.1-11.6,71.9-5.4,78.5-2.1,78.6-1.4,61.2h420.5l-9.5-72.5-10-109.2-8.6-149.2-3.4-63.6-9.8-204.8,26.1,2.2,83.8,6.5,90.7,5.9,83.8,4.3,80.5,1.5,99,6.2,50.1,3.1-5-9.4,2.4-97.3,5.3-160.4,15.3-295.1,11-132.2,12.2-99.3,13.6-67.5,10.5-21.9s-8.7-69.6-8.8-77.6-175.8-41.8-175.8-41.8l-106.3-69.4s-95.9,29.6-96.9,32.7-303.3,218.6-303.3,218.6l-135.9,232.4Z"/>
<polygon class="st12" points="442.5 3780 431.8 3694.3 421.9 3579 414.9 3467.5 410.9 3385.5 442.5 3396.6 481.2 3405.7 519.9 3410.1 592.7 3413 684.7 3417.9 807.2 3426.6 976.6 3444.3 1094 3464.7 1157.5 3476 1221.6 3486.7 1344.4 3505.5 1451.6 3520.2 1534.5 3531.6 1660.8 3557.6 1835.5 3593.1 1969.7 3616.7 2031.7 3624.8 2078.6 3629.9 2136.8 3636 2154.1 3636 2125.6 3780 442.5 3780"/>
<polygon class="st10" points="401.2 3180.7 410.9 3385.5 467.9 3402.6 528.3 3410.4 627.3 3415.4 744 3422.1 907.2 3435.9 1037.1 3454.8 1179.4 3479.6 1277.5 3495.3 1382.6 3510.8 1477 3523.7 1511.8 3525.7 1574.1 3541 1668.9 3559.3 1784.6 3582.8 1906 3606.4 2025.4 3624 2113.3 3636 2154.1 3636 2169.3 3570.3 2183.8 3512.7 2176.1 3469.7 2164.4 3406.2 2125.6 3403 2031.6 3394 1930.1 3371.1 1800.1 3337.6 1684.2 3312.2 1515.7 3284.3 1282.8 3249.1 1100.2 3225.5 991.7 3216.7 830.6 3206.1 722.3 3199.9 601.8 3195.4 511.2 3189.5 406.7 3180.7 401.2 3180.7"/>
<polygon class="st12" points="980.5 2327.7 970 2349.5 951.2 2459.4 932.5 2663.8 920.2 2901.7 912.2 3125.4 910.1 3210.6 1032.9 3220 1094.9 3225 1287.4 3249.8 1482.7 3279.3 1641.5 3305.1 1722.4 3320.5 1830.8 3345.5 1921.3 3370.5 2005 3386.8 2117.2 3402.2 2164.4 3406.2 2160.8 3373.6 2139.8 3186.7 2120 2979.4 2112.9 2832.3 2117.3 2666.8 2021.3 2559.6 1921.8 2467.4 1740.6 2317.2 1545 2140.4 1497 2096.3 1466.8 2124.5 1357.6 2206.2 1275.9 2253.2 1218.7 2286.9 1155.3 2310.4 1093.4 2323.6 1031.8 2329.8 980.5 2327.7"/>
<polygon class="st4" points="1501.6 2096.3 1561.5 2037.5 1613.7 1984.4 1633.8 1961.6 1648.6 1969.8 1723.8 2009.9 1801.3 2048.6 1868.3 2077.2 1913.7 2096.3 1961.3 2122.2 1994.8 2141.9 2033.2 2162.1 2065.3 2184.7 2098.2 2230.4 2125 2286.5 2151.8 2338.9 2195.7 2397.8 2230 2439.1 2255.3 2466.5 2278.2 2492.3 2313.9 2539.9 2344 2588.1 2349.2 2602.5 2303 2670.9 2247.7 2765.1 2196.7 2857.1 2162.4 2937.8 2136.8 3035.7 2134.2 3066.1 2123.5 3014.1 2117.2 2921.7 2115.3 2798.6 2117.3 2666.8 2099 2647.4 2021.3 2559.6 1950.9 2494.2 1890 2442.4 1793.6 2364.5 1698.9 2279.5 1590.4 2182.7 1503.6 2102.1 1501.6 2096.3"/>
<polygon class="st11" points="2132.4 3057.4 2147.5 2987 2162.4 2937.8 2202.5 2846.7 2268.5 2728.1 2303 2670.9 2349.2 2602.5 2369.6 2569.6 2406.6 2527.7 2475.1 2464.7 2520 2430.9 2520 3780 2125.6 3780 2147.5 3665.6 2169.3 3570.3 2183.8 3512.7 2176.6 3455.8 2154.1 3325.4 2139.8 3186.7 2132.4 3057.4"/>
<polygon class="st7" points="1633.8 1961.6 1678.3 1905.9 1710.6 1860 1730.1 1829.6 1762.4 1843.5 1840.4 1875.9 1932.6 1911.8 2021.8 1944.2 2117.2 1978.5 2248.9 2035.2 2337.3 2083.4 2407.8 2135.2 2486.7 2223.4 2520 2279.5 2520 2430.9 2452.4 2479.9 2369.6 2569.6 2349.2 2602.5 2335.9 2570.3 2295.3 2513.9 2255.3 2466.5 2223.2 2430.9 2176.6 2371.2 2146.2 2329.8 2117.2 2270.1 2104.6 2239.4 2087.9 2216.1 2065.3 2184.7 2026.5 2156.7 1979 2132.2 1925.4 2102.7 1882.5 2084.7 1822.7 2060.2 1740 2020.4 1633.8 1961.6"/>
</g>
<g id="Layer_8">
<path class="st4" d="M155.9,2612s59.9,81.6,66.8,92.3c6.9,10.7,16.9,0,17.6-8.4,0,0,26-215.2,29.1-220.6,3.1-5.4,0-43.7,48.3-69.7,0,0,29.9-29.1,176.9-87.3,0,0,29.1-.8,89.6-65.9,60.5-65.1,105.4-78.1,105.4-78.1l-25.1-62.4c-9.1-18.1-18.1-36.1-27.2-54.2-8.8,4.8-17.5,9.7-26.3,14.5l-108.7,72.6-124.9,94.5-51.7,38.5-60.9,64.6-41.6,66.1-25.2,70.5-42.1,132.9Z"/>
<path class="st2" d="M155.6,2620.1c20.9,28.9,41.4,58,62.6,86.6,3.1,4.1,7.4,7.9,12.9,7.2,7.8-.9,11.5-9.4,13.7-15.9,2.3-6.8,1.8-13.7,2.7-20.7,1.1-9,2.2-17.9,3.3-26.9,4.1-32.9,8.2-65.9,12.4-98.8,2.1-16.5,4.5-33,7.1-49.5,2.8-18,4.2-37.9,12.5-54.4,11.7-23,33.4-37.9,54.8-50.4,16.9-9.9,34.3-18.9,51.8-27.7,16-8.1,31.9-16.4,48.4-23.4,23.4-9.9,49-19.1,73.1-28.9,30.5-12.4,55.9-34.6,76-60.3,19.3-24.5,44.4-43.7,71-59.9,9.9-6,20-11.7,30.3-17,5.7-3,.7-11.6-5-8.6-32.7,17-64.9,37.1-90.6,63.9-8.3,8.6-15.2,18.4-23.2,27.3-14.7,16.4-32.2,30.6-51.7,40.9-8.5,4.5-17.9,7.6-26.9,11.1-13.8,5.4-27.6,10.7-41.3,16.2-30.9,12.2-60.5,27.5-89.9,43-19.5,10.3-39.2,20.8-56.2,34.9-16.2,13.4-29.4,29.2-35.3,49.7s-3.2,16.1-4.6,24.1-3.1,19-4.5,28.6c-4.2,28.1-7.7,56.2-11.2,84.4s-5.1,40.6-7.6,60.9-2.1,15.1-2.8,22.7-.5,14.3-4,21.1c-1.6,3.1-3,5.2-5.9,2.3-.8-.7-.2-.2-.8-1-1.4-1.8-2.7-3.7-4-5.6-6-8.3-12-16.6-18-25-12.6-17.5-25.3-35-37.9-52.4-.8-1.1-1.6-2.2-2.4-3.3-3.7-5.2-12.4-.2-8.6,5h0Z"/>
</g>
<g id="Layer_12">
<polygon class="st4" points="666.5 1880.7 699.8 1852.8 712.1 1840.6 706.5 1811 666.5 1880.7"/>
<polygon class="st4" points="616.1 2068.9 635.7 2056.2 630.4 2033.1 625.9 2010.1 610.5 2032.6 616.1 2068.9"/>
</g>
<g id="Layer_7">
<path class="st2" d="M635.6,2050.3c-64.6,41.7-128.4,84.8-191.6,128.7-23.2,16.1-46.6,32.1-68.6,49.6-23,18.4-45.4,37.8-66.6,58.2-44.5,42.9-83.7,92.9-103.1,152.3-14.6,44.9-29.9,89.6-44.4,134.5-16.9,52.5-25.8,107.7-30.4,162.5-1.8,20.8-2.7,41.7-2.9,62.5s2.9,46.6,5.2,69.8,2.3,23.6,3.4,35.5c.6,5.9,1.1,11.8,1.7,17.7s-.3,8.7-.9,13.1c-2.7,19.5-5.6,38.9-8.6,58.3-9.2,59.1-20,117.9-31.8,176.5-12.5,62-20.3,124.7-31.5,186.9-6.1,34.1-12.1,68.5-20.8,102.1-10.1,38.9-16.9,78.6-20.3,118.6-4.5,52-5.1,104.2-6.4,156.3s-.7,31-1.1,46.5,2.3,5,5,5h420.5c3.6,0,5.3-3.2,4.8-6.3-9.1-62.6-15.8-125.4-19.9-188.5-5.5-84-9.7-168.2-14-252.3-4.5-89.5-10.2-179.2-10-268.8.3-85,4-169.9,11.4-254.5s18.4-187.7,29.4-281.3c1.1-8.9,2.1-17.9,3.2-26.8s-9.2-6.3-10,0c-11.2,92.9-21.2,185.9-30,279s-12.5,164.8-13.7,247.4,0,90.9,1.9,136.4c2,47.5,4.2,95,6.5,142.4,4.2,85.5,8.7,171,13.9,256.5,3.8,63,9.6,125.7,18.1,188.3,1.1,8.3,2.3,16.5,3.5,24.8,1.6-2.1,3.2-4.2,4.8-6.3H22c1.7,1.7,3.3,3.3,5,5,1.3-54.6,1.4-109.3,4.6-163.8,2-34.7,5.2-69.3,11.5-103.5,3.3-17.9,7.2-35.7,11.8-53.3,3.8-14.3,6.6-28.9,9.5-43.5,7.7-38.6,14.8-77.3,20.7-116.1,5-32.3,9.8-64.5,15.6-96.7,10.3-56.8,22.1-113.2,31.6-170.1,5.3-31.5,10.1-63.1,14.6-94.7s1.2-7.5,1.6-11.2c.5-5.8-.9-12.2-1.4-18.1-1.1-11.5-2.2-23-3.4-34.5-2.3-23.5-5.9-47.3-5.8-70.9.2-72.6,9.4-145.8,29.5-215.6,2.6-9.1,5.6-18,8.6-26.9,10-29.9,19.9-59.8,29.7-89.7,5.1-15.6,9.7-31.5,15.8-46.8,13.8-34.4,35-65.7,59.1-93.7,22-25.5,46.6-48.5,72.1-70.4,18.8-16.1,37.9-31.5,57.9-45.9,63.2-45.3,127.8-88.8,192.8-131.4,12.4-8.1,24.7-16.2,37.2-24.2,5.4-3.5.4-12.1-5-8.6h0Z"/>
<path class="st2" d="M226.3,3274c21.8,70.1,44.7,140,68.6,209.4,20.8,60.6,42.5,120.8,64.9,180.8,14.6,39.2,29.6,78.2,44.9,117.1,2.3,5.9,12,3.3,9.6-2.7-24.6-62.6-48.4-125.6-71.4-188.9-25.1-69.3-49.2-139.1-72.2-209.1-11.9-36.3-23.6-72.8-34.9-109.3-1.9-6.1-11.6-3.5-9.6,2.7h0Z"/>
<path class="st2" d="M138.9,2927.1c6,25.3,12,50.6,17.9,75.9,10.2,43.4,20.4,86.7,30.3,130.2,3.2,14,6.6,28,9.2,42.1s10.8,3.6,9.6-2.7c-6-32.4-14.3-64.5-21.8-96.7-9.6-41.5-19.4-82.9-29.2-124.3-2.1-9.1-4.3-18.1-6.5-27.2s-11.1-3.6-9.6,2.7h0Z"/>
<path class="st2" d="M403.5,3115.9c-25.8-75.7-45.9-153.4-59.9-232.2-13.8-77.5-21.9-156.3-28.8-234.7-4.3-49.1-7.6-98.4-9.8-147.6-.3-6.4-10.3-6.4-10,0,3.7,80.7,10.1,161.3,19.3,241.6,4.8,41.9,9.7,83.9,16.6,125.6,7.4,44.9,16.9,89.5,28.2,133.6,10.1,39.2,21.7,78,34.7,116.4s11.7,3.5,9.6-2.7h0Z"/>
<path class="st2" d="M409.6,3390.3c27.9,11.4,57.2,18.9,87.1,22.7,29.1,3.7,58.6,3.1,87.8,4.5,65,3.2,129.9,6.9,194.8,11.9,54.1,4.1,108.2,8.4,162,15.1,42.1,5.2,83.9,12.6,125.6,20.3,57,10.4,114.1,20.5,171.3,29.6,58.2,9.3,116.4,17.8,174.8,25.7,17.7,2.4,35.4,4.7,53.1,6.9,19.3,2.4,39.2,3.6,58.3,7.6,35.1,7.3,70.3,14.5,105.4,21.8,58.3,12,116.6,24,175,35.7,45.4,9.1,90.9,18.1,136.7,25.4,59.3,9.4,119.1,16.4,179,21.2,11.2.9,22.4,1.7,33.6,2.4,6.4.4,6.4-9.6,0-10-61.3-4-122.4-10.4-183.1-19.2-41.8-6.1-83.4-13.6-124.8-21.7-57.4-11.3-114.7-23.1-172-34.8-32-6.5-63.9-13.1-95.8-19.7-18.4-3.8-36.7-8-55.1-11.4-18.7-3.4-38.1-4.7-57.1-7.1-63.6-8.1-127.1-17-190.5-26.8-57.2-8.8-114.3-18.4-171.2-28.8-43.2-7.8-86.3-16.2-129.7-22.5-49.3-7.2-98.8-11.8-148.4-15.9-60.4-5-120.9-9.2-181.4-12.4-37.6-2-75.1-3.9-112.7-5.2-28.7-1-56.9-4.7-84.6-12.6-12-3.4-23.8-7.5-35.4-12.2-6-2.4-8.6,7.2-2.7,9.6h0Z"/>
<path class="st2" d="M2130.4,3781.3c11-62.3,23.8-124.3,38.1-185.9,11.4-48.6,24.1-96.9,37.6-145,16.3-57.9,31.9-116,47-174.2,17.7-68.6,34.5-137.3,49.7-206.5,15.3-69.8,29.2-139.9,41.5-210.3,1.2-6.9,2.4-13.8,3.6-20.7,1.1-6.3-8.6-9-9.6-2.7-11.5,67.4-24.4,134.5-38.7,201.4-15.3,71.9-32.3,143.4-50.6,214.5-15.4,60.1-31.3,120.1-48,179.8-12.4,44.3-24.7,88.6-35.5,133.3-15.8,65.2-29.7,130.8-41.7,196.8-1,5.6-2,11.2-3,16.8-1.1,6.3,8.5,9,9.6,2.7h0Z"/>
<path class="st2" d="M401.2,3185.7c66.7,5.8,133.5,10.8,200.4,14.7,52.3,3,104.6,5.5,156.9,7.2,30.6,1,61.3,2.1,91.9,4,24,1.5,47.9,3.2,71.9,4.9,55.7,4.1,111.4,8.5,167.1,13.1,36.8,3,73.5,8.5,110,13.3,37.1,4.8,74.2,9.9,111.3,15.2,73.7,10.5,147.4,21.8,220.8,34,33.7,5.6,67.6,10.3,101.2,16,34.7,5.8,69.3,12.5,103.7,20,33.9,7.4,67.6,15.5,101.1,24.4,25.9,6.9,51.8,14.2,77.9,20.5,64.1,15.5,129.3,26.6,194.9,33.6,17.9,1.9,35.9,3.5,53.9,4.8,6.4.5,6.4-9.5,0-10-69.1-5-137.8-14.5-205.6-28.9-57.2-12.1-113.1-29-169.9-42.7-68.4-16.5-137.7-29.7-207.4-39.8-35.6-5.1-71-11.5-106.5-17.2-36.8-5.9-73.7-11.5-110.6-17-73.7-10.9-147.6-20.9-221.6-30.1-62.9-7.8-126.2-12.1-189.5-16.9-31-2.3-62-4.6-93-6.6-22.1-1.4-44.2-2.5-66.3-3.4-51-2-102.1-3.6-153.1-6.3-62-3.2-124-7.4-185.9-12.3s-36.1-3-54.1-4.5c-6.4-.6-6.4,9.4,0,10h0Z"/>
<path class="st2" d="M2188.7,3511.4c-16.6-88.6-29.9-177.8-38.8-267.5-4.9-49.7-9.1-99.7-10.4-149.7-.5-17.8-.5-35.7,1.7-53.4,3.7-29.4,12.5-61.5,22.3-90.6,11.7-34.6,25.9-68.2,42.8-100.7,22.6-43.6,48-85.7,72.8-128.1,20.2-34.4,40.3-69,61.9-102.5,15.1-23.3,31.2-45.6,49.6-66.5,29.7-33.6,62.5-64.3,97.7-92,11.2-8.8,22.7-17.2,34.3-25.4,5.2-3.7.2-12.3-5-8.6-65.4,45.8-126.4,101.2-171.8,167.3s-39,61-57.4,92.2c-26.1,44.1-52.2,88.1-77,132.9-35.6,64.6-65.7,134.2-78,207.3-2.6,15.5-3.9,31-4,46.8-.3,44.3,3.4,88.7,7.1,132.7,7.6,89.3,19.7,178.2,35.2,266.5,2.4,13.9,5,27.8,7.5,41.7,1.2,6.3,10.8,3.6,9.6-2.7h0Z"/>
<path class="st2" d="M2141.8,3136.6c-6.3-60.4-13-120.9-19.3-181.3-3.8-36.1-5.6-72.2-4.9-108.5,1-53,3.2-106,4.3-159,.4-17.9.7-35.8,1.5-53.7,2.7-61.5,7.1-122.9,13-184.2.9-9.4,1.8-18.7,2.8-28.1.7-6.4-9.3-6.3-10,0-6.7,64.8-11.8,129.9-15,195-1,20.7-1.7,41.4-2.1,62.1-1,49.8-2.7,99.7-4.1,149.5-1,37.7-.6,75.2,3,112.8,5.4,56,12,111.9,17.9,167.8,1,9.2,1.9,18.5,2.9,27.7.7,6.3,10.7,6.4,10,0h0Z"/>
<path class="st2" d="M1727.5,1834c59.6,25.9,119.8,50.6,180.6,73.9,50,19.1,100.4,37,150.8,54.8,57.8,20.4,115,42.2,170.4,68.6,56.5,27,113.4,56.6,162,96.5,46.5,38.2,85.8,85.1,116.2,137,2.8,4.8,5.6,9.7,8.2,14.5,3.1,5.6,11.7.6,8.6-5-28.3-51.7-64.9-98.9-108.6-138.5-45.6-41.4-99.2-72-153.9-99.6-56.4-28.5-114.8-52.4-174.2-73.8-51.5-18.6-103.3-36.3-154.6-55.6-58.9-22.2-117.3-45.7-175.2-70.4-8.4-3.6-16.8-7.2-25.2-10.9-5.8-2.5-10.9,6.1-5,8.6h0Z"/>
<path class="st2" d="M1631.3,1966c60.7,33.4,121.8,66.5,185,95.1,16.2,7.3,32.6,14.2,49.3,20.5,32,12,63,26.5,92.2,44.3,25.6,15.7,51.8,29.9,78.6,43.4,25.7,12.9,42.6,37.9,56.7,62.1,9.4,16.2,17.7,32.5,24.6,49.9,6.3,15.8,13,31.4,21.4,46.2,8.1,14.2,17.6,27.6,27.4,40.6,13.3,17.6,26.9,35.1,40.9,52.1s40.5,44.6,60.4,67.4c25.3,29.1,47.4,61,66.9,94.1,3.6,6,7,12.2,10.4,18.3,3.1,5.6,11.7.6,8.6-5-18.2-33.3-39.2-65.1-62.7-94.9-18.2-23.1-38.9-43.7-58.4-65.7-13.7-15.5-26.7-31.6-39.4-47.9-11.7-15-23.5-30-34.2-45.8-9.2-13.7-17.1-28.1-23.9-43.2-6.9-15.3-12.3-31.3-19.8-46.3-15.7-31.6-35.1-65.4-65.1-85.5-6.3-4.2-13.3-7.2-20.1-10.6-16.5-8.2-32.7-17.2-48.6-26.5-11.8-6.9-23.2-14.3-35.1-20.9-18.1-10.1-36.8-19.1-55.9-27-18.3-7.6-36.9-14-55.1-21.9-57.5-25-113-54.6-168.1-84.4-10.4-5.6-20.7-11.3-31-16.9-5.6-3.1-10.7,5.5-5,8.6h0Z"/>
<path class="st2" d="M1493.4,2099.8c46.3,42.8,92.9,85.2,139.7,127.5,43.5,39.3,86.9,78.8,131.1,117.2,39.4,34.3,79.5,67.9,120.7,100.1,32.1,25.1,63.3,50.7,92.9,78.7,44.9,42.5,86.7,88.3,125,136.9,3.4,4.3,6.8,8.7,10.2,13.1,3.9,5,12.5,0,8.6-5-35.4-46.3-73.8-90.1-115.2-131.1-32.5-32.3-66.6-62.3-102.7-90.5-40.4-31.5-79.9-64-118.7-97.4-42-36.2-83.2-73.4-124.3-110.6-49.3-44.6-98.5-89.3-147.5-134.3-4.2-3.9-8.4-7.8-12.7-11.7-4.7-4.4-11.8,2.7-7.1,7.1h0Z"/>
<path class="st2" d="M915.1,3210.6c.1-6.7.3-13.5.4-20.2.4-18.5.8-37,1.3-55.5.7-27.8,1.5-55.7,2.4-83.5s2.3-68.8,3.6-103.1c1.5-38.5,3.1-76.9,4.9-115.4,1.9-40,4-80,6.4-120,2.3-39,5-77.9,8.1-116.9,2.8-35.6,6-71.1,9.9-106.6,3.2-29.1,6.8-58.1,11.7-86.9,3.5-20.6,7.4-41.3,13.9-61.2,1.1-3.4,2.3-6.8,3.7-10.1,2.5-5.9-7.2-8.5-9.6-2.7-7.2,17.1-11,35.8-14.5,53.9-5.3,27.2-9,54.8-12.4,82.3-4.1,34.1-7.5,68.3-10.4,102.5-3.3,38.2-6,76.5-8.5,114.8-2.6,40.1-4.8,80.3-6.9,120.4-2,39.3-3.7,78.5-5.3,117.8-1.4,35.6-2.7,71.3-3.9,106.9-1,29.7-1.9,59.5-2.7,89.2-.6,21-1.1,42.1-1.6,63.1-.2,9.9-.7,19.8-.6,29.7s0,.8,0,1.3c-.1,6.4,9.9,6.4,10,0h0Z"/>
<path class="st2" d="M1161,2303.8c-22.6,123.9-39.9,248.7-52,374-11.5,119.7-18.2,239.9-20.1,360.2-1,62.3-.6,124.7,1,187,.2,6.4,10.2,6.4,10,0-2.9-113.4-1.6-226.9,4-340.1,6.2-124.2,17.5-248.1,34-371.3,9.3-69.3,20.2-138.3,32.8-207.1,1.1-6.3-8.5-9-9.6-2.7h0Z"/>
</g>
<g id="Layer_6">
<g>
<path class="st9" d="M629.6,2016.4c-.4,5.6-.3,13.9,2.4,23.4,2.6,9.2,6.3,14.9,10.2,22,4.4,7.9,10.1,19.6,15.3,35.2,5.3,11.3,12.6,27.3,20.4,47,9.3,23.5,17.9,45.1,24.5,73.5,4.1,17.6,8.6,42.4,9.7,73,47,1.5,85.8,3.7,114.9,5.6,23.7,1.6,37.9,2.8,56.7,7.1,24.5,5.7,32.5,11.2,56.7,17.4,25.8,6.6,45.9,7.7,61.8,8.7,9.4.6,53.1,2.8,109.8-9.2,28.9-6.1,68.9-17.5,113.4-40.3,22-9.3,54.5-24.1,91.9-45.7,72.9-42.1,120.5-84.4,189.5-146.5,49.4-44.5,84.4-75.9,127.1-125.9,43.1-50.4,74.5-96.8,96.3-132,1.1-2.2,3.8-8.6,2.1-16.6-.7-3.5-2.3-7.2-5.2-11-19.5-39.5-32.5-69.2-41.1-89.6-8-19-17.3-37.4-24.5-56.7-6.8-18.1-8-24-14.1-30.6-17.5-18.9-49.8-15.7-63-14.3-130.9,14.5-196.3,21.7-462.4,180.5l-492.3,225Z"/>
<path class="st2" d="M624.6,2016.4c-.5,9.4.5,19.1,3.6,28,2.6,7.8,6.9,14.6,10.8,21.8s8,16.3,11.2,24.9,6.3,15.4,9.8,23c16.1,35.9,31,73.2,39.3,111.8,4.5,21.3,7.1,42.9,7.9,64.6.1,2.8,2.2,4.9,5,5,31.3,1,62.5,2.4,93.8,4.3,27.8,1.7,55.8,2.8,82.9,9.9,13,3.4,25.5,8.5,38.4,12.4,15.4,4.7,31.1,7.9,47.1,9.9,18,2.2,36.4,3.1,54.6,2.8,57.2-1.1,114.1-13.5,166.7-35.6,14.2-6,27.9-13,42.1-19.2,12.2-5.3,24.3-11,36.3-16.9,28.9-14.3,56.9-30.3,83.9-48,50.7-33.3,96.2-73.3,141.2-113.7,46.6-41.9,93.1-83.7,134.2-131.2,21.7-25.1,42.3-51.3,61.6-78.3,8.2-11.5,16.1-23.1,23.9-34.9,3.5-5.3,7-10.7,10.4-16.1,2.7-4.4,5.8-8.6,7.3-13.6,4.8-15.5-5.3-28.2-11.7-41.5-6.7-13.8-13.1-27.6-19.4-41.5-11.3-25-22.4-50.2-33.2-75.4-5.4-12.7-8.9-26.4-15.2-38.7-4.8-9.5-13.6-16.2-23.3-20.1-18.8-7.7-39.2-5.3-58.8-3.1-28.5,3.2-57.1,6.5-85.3,11.7-29.1,5.4-57.7,13.2-85.7,23-37.3,13.2-73.4,29.6-108.7,47.3-51.8,26-102.3,54.7-152.2,84.1-9,5.3-17.6,11.3-27.1,15.6-5.2,2.4-10.4,4.7-15.6,7.1-20,9.2-40.1,18.3-60.1,27.5-29.1,13.3-58.1,26.6-87.2,39.9-33.1,15.1-66.1,30.2-99.2,45.3-32.1,14.7-64.2,29.3-96.3,44s-52.1,23.8-78.2,35.7c-15.3,7-30.7,14-46,21-2,.9-4.1,1.9-6.1,2.8-5.8,2.7-.8,11.3,5,8.6,8.1-3.7,16.2-7.4,24.2-11.1,21.1-9.6,42.1-19.2,63.2-28.9,29.3-13.4,58.5-26.8,87.8-40.1,32.7-15,65.5-29.9,98.2-44.9,31.4-14.4,62.8-28.7,94.2-43.1,25.3-11.6,50.7-23.2,76-34.7,14.5-6.6,29-13.3,43.5-19.9,5.1-2.3,9.6-5,14.5-7.9,27.9-16.6,55.9-32.9,84.2-48.7,42.4-23.7,85.4-46.6,129.8-66.5,30.9-13.8,62.5-26.1,95.1-35.2,26.8-7.6,54.2-12.8,81.8-16.7,13.9-2,27.8-3.6,41.8-5.2,17.5-2,35.7-5.2,53.2-1.5,10.5,2.2,21.4,7.1,27.2,16.6,2.5,4.1,4,8.6,5.6,13.1,2.7,7.5,5.5,15.1,8.6,22.4,10.6,25.4,22,50.7,33.2,75.8,5.9,13.2,12,26.3,18.2,39.3,3.6,7.5,6.8,15.5,11.3,22.5,3.8,6,5.3,12.8,2.6,19.7-1.8,4.8-5.4,9.2-8.1,13.5-3.5,5.5-7,11-10.6,16.4-7.7,11.7-15.7,23.2-23.9,34.6-37.1,51.5-78.8,99.4-124.9,143-23,21.9-46.8,43-70.4,64.2-22.9,20.6-46,41.1-69.9,60.5-47.3,38.5-98.6,71.5-153.4,98.3-11.7,5.7-23.5,11.2-35.4,16.3-14.4,6.2-28.2,13.5-42.7,19.4-25.3,10.3-51.6,18.3-78.3,23.8-45.7,9.4-93.9,12.4-140.3,5.5-15.8-2.4-31.3-6.1-46.4-11.3s-25.8-9-39.2-12c-26.1-5.9-53.1-6.7-79.7-8.3-30.3-1.8-60.6-3.1-90.9-4.1,1.7,1.7,3.3,3.3,5,5-1.5-38.2-8.4-76-20.9-112.2-6.5-18.9-14-37.5-21.8-55.9-3.5-8.3-7.2-16.6-11.1-24.7-3.9-8.4-6.6-17.4-10.5-25.9-3.8-8.3-8.7-15.9-12.7-24.1s-6.3-20.6-5.6-31.3-9.6-6.4-10,0Z"/>
</g>
<path class="st8" d="M131,1405.6"/>
<path class="st2" d="M961.8,2255.1c19.5.7,39.6-2.4,58.5-6.5,41.5-9.1,81-27.6,113.1-55.6,23.4-20.4,42.2-45.8,55.8-73.6,2.8-5.8-5.8-10.8-8.6-5-22.3,45.4-58.1,81.8-103.5,104.1-29.8,14.6-62.8,23.4-95.8,26-6.5.5-13,.9-19.5.7-6.4-.2-6.4,9.8,0,10h0Z"/>
</g>
<g id="Layer_5">
<g>
<path class="st4" d="M1476.5,1618c10.8-1.1,25.7-2.5,43.4-3.7,11.3-.8,23.3-1.3,47.3-2.4,22.4-1,35.8-1.5,53.4,1.4,13.3,2.1,21.5,4.9,26.6,11.9,4.8,6.6,5,14.4,5.1,17.7.3,8.4-2.2,14.9-5.8,22.6-8.7,18.8-18,31.9-18.4,32.5-16.5,23.2-24.8,34.8-30.6,41.9-29.9,36.4-48.8,58.8-75.6,87-40,42-111.4,115.9-222.6,183.8-48.6,29.7-88.9,54.3-150.5,73.4-76.1,23.6-138.1,24.3-190.6,24.9-86.3.9-144.9-11.7-194.7-22.8-34.5-7.7-66.7-16.9-99.4-40.5-18.9-13.6-59.7-43-56.5-81,1.3-15.4,9.3-27.4,16-35.1,24.6-33,66.5-79.6,130.9-108.8,0,0,461.1,28.1,461.1,28.1l260.9-230.8Z"/>
<path class="st2" d="M1476.5,1623c26.1-2.7,52.1-4.4,78.3-5.6,16-.7,32.1-1.9,48.2-1.1s14.3,1.2,21.3,2.6c5.9,1.2,12.4,2.6,16.9,6.8,11.4,10.8,5.1,28.9-.6,40.6-4.8,10-10.3,19.8-16.6,28.9-14.5,20.8-29.7,40.8-46,60.4-31.9,38.4-65.6,75.3-101.4,110.2-41.6,40.6-86.3,77.9-134.1,110.8-27.2,18.8-55.5,36.1-84.1,52.7-26.3,15.3-53.5,29.1-82,39.9-60.7,22.9-124.4,32.6-189,34.1-59.6,1.4-118.5-1.5-177.2-12.6-26-4.9-52.3-10.2-77.6-17.7s-54.2-22.2-77.7-40.5c-18.4-14.3-38.7-33.2-42.1-57.5-2-14.1,3.1-27.8,11.7-38.9,6.6-8.6,13.3-17.1,20.3-25.3,17.5-20.4,37.1-39,58.9-54.8,12.9-9.4,26.5-17.7,40.7-25,3.3-1.7,7.1-2.9,10.2-5,1.9-1.3-.5-.3,0-.4s.8,0,1.2,0c14.9.9,29.8,1.8,44.7,2.7,30.2,1.8,60.5,3.7,90.7,5.5,37.1,2.3,74.2,4.5,111.3,6.8,36,2.2,71.9,4.4,107.9,6.6,26.3,1.6,52.6,3.2,78.9,4.8,7,.4,14,.9,21.1,1.3,3.5.2,6.1.9,9.1-1.4,4.1-3.2,7.9-7,11.7-10.4,8.5-7.5,17-15,25.5-22.6,25.4-22.4,50.7-44.9,76.1-67.3,27.6-24.4,55.2-48.8,82.8-73.2s37.5-33.2,56.3-49.8c2.7-2.4,5.5-4.8,8.2-7.2,4.8-4.3-2.3-11.3-7.1-7.1-8.6,7.6-17.3,15.3-25.9,22.9-20.7,18.3-41.5,36.7-62.2,55-25.1,22.2-50.2,44.4-75.3,66.6-21.7,19.2-43.5,38.4-65.2,57.7-7.2,6.3-14.4,12.7-21.5,19-3.3,2.9-7.5,5.7-10.3,9.1s-.3.3-.5.4c1.2-.5,2.4-1,3.5-1.5-26.2-1.6-52.5-3.2-78.7-4.8-56.4-3.4-112.9-6.9-169.3-10.3-53-3.2-106-6.5-159-9.7-15.1-.9-30.2-1.8-45.3-2.8-2.8-.2-5.7-.7-8.5-.5-5.6.3-12,4.9-17,7.5-11.3,5.8-22.2,12.4-32.7,19.6-18.3,12.6-35.3,27-50.8,42.8-13,13.2-24.1,27.7-35.8,42-13.6,16.7-20.1,37.9-13.3,58.9,6.2,19,20.3,34.5,35.3,47.1,15.9,13.5,33.3,25.6,52.1,34.7,22.6,10.9,46.8,17.4,71.2,22.9,40.5,9,81.1,16.6,122.5,20.1,47.8,4,96.5,3.7,144.3,0,52.9-4.1,105.3-15.4,154.8-34.8,45.7-18,88.1-43.5,129.5-69.6,43.3-27.4,84.5-58.2,123.2-91.9,27.6-24.1,53.8-49.6,79.2-76.1,30.4-31.7,59.8-64.7,86.8-99.4,10.6-13.7,21.1-27.9,30.6-42.4,5.7-8.8,10.8-18,15.3-27.4,5.1-10.7,8.5-21.3,6.7-33.2-1.5-10.2-7.2-18.9-16.7-23.2-9.8-4.5-21.4-5.7-32.1-6.6-23.5-1.9-47.5.4-71,1.6s-40.4,2.7-60.5,4.7c-6.3.6-6.4,10.7,0,10Z"/>
</g>
</g>
<g id="Layer_4">
<g>
<path class="st0" d="M699.9,1446.9c-.9,35-1.5,81.7-1,136.9.4,43.3.8,85.2,4,140.9,2.8,48.8,5.5,96,14.8,157.3,5.9,38.9,14.9,86.5,29.1,140.4,63.4,17.5,118,23.3,157.8,25,50,2.2,122.8,4.7,203.7-24,34.1-12.1,64.6-27.9,67.9-29.6,28-14.6,31.4-19.6,89.9-55.9,35.2-21.8,40.2-23.9,67.5-41.6,15.5-10.1,32.8-21.4,54.5-37.3,6.5-4.7,27.8-20.6,59.8-47.8,27.7-23.5,22.4-20.7,78-71.2,4.2-3.8,26.1-27.6,70-75.1,5.4-5.8,16.3-17.8,12.9-24.2-2.3-4.3-10.1-4-29.7-3.4-47.3,1.6-42.5,1.2-47,1.5-13.8,1-31.4,2.5-52.1,4.6-3.8-11-7.7-21.9-11.5-32.9l-746.3-191.8-22.5,28.1Z"/>
<path class="st2" d="M694.9,1446.9c-1.6,68.1-1.7,136.2,0,204.3,1.8,71.1,5.7,142.5,15.3,213,4.6,34.1,10.6,68,17.9,101.7,2.1,9.6,4.3,19.1,6.6,28.7s2.3,9.3,3.4,14c1.2,4.8,1.9,10.6,3.9,15.2,1.8,4,6.3,4.3,10.2,5.3,5.3,1.4,10.6,2.8,16,4.1,9.3,2.2,18.6,4.3,28,6.2,59.3,11.8,120.9,16.5,181.4,13.8,35.8-1.6,71.5-6.8,106.1-16.5,31.7-8.9,62.3-21.7,91.6-36.6,13.3-6.7,25.9-14.4,38.4-22.5,24.3-15.8,48.7-31.4,73.5-46.4,43.7-26.5,86.7-53.8,126.9-85.4,19-15,37.8-30.4,55.7-46.7,12.8-11.7,25.3-23.7,38.1-35.4,13.8-12.7,27.1-25.1,39.9-38.8,9.2-9.9,18.4-19.8,27.6-29.8,11.2-12.1,23.7-23.8,33.4-37.1,5.7-7.8,10-21.2-2.5-24.7-5.1-1.4-10.8-1.1-16.1-1-9.1.2-18.1.6-27.2.9-10.6.3-21.3.3-32,1.1-16.9,1.3-33.9,2.8-50.8,4.5,1.6,1.2,3.2,2.4,4.8,3.7-3.1-8.8-6.2-17.7-9.3-26.5-1.3-3.7-1.8-8.4-5.8-9.9-.6-.2-1.3-.3-2-.5-3.9-1-7.8-2-11.6-3-16.7-4.3-33.4-8.6-50.1-12.9-26.1-6.7-52.3-13.4-78.4-20.2-32.7-8.4-65.3-16.8-98-25.2-36.2-9.3-72.5-18.6-108.7-27.9-36.9-9.5-73.8-19-110.6-28.4-34.6-8.9-69.2-17.8-103.7-26.7-29.3-7.5-58.7-15.1-88-22.6-21.2-5.4-42.3-10.9-63.5-16.3-10-2.6-20-5.4-30.1-7.7-.4-.1-.9-.2-1.3-.3-1.6-.4-3.8,0-4.9,1.3-7.5,9.4-15,18.7-22.5,28.1-4,5,3,12.1,7.1,7.1,7.5-9.4,15-18.7,22.5-28.1l-4.9,1.3c6.7,1.7,13.3,3.4,20,5.1,18.1,4.7,36.3,9.3,54.4,14,26.7,6.9,53.4,13.7,80.1,20.6,32.7,8.4,65.4,16.8,98.1,25.2,35.7,9.2,71.3,18.3,107,27.5,36.2,9.3,72.3,18.6,108.5,27.9,33.7,8.7,67.4,17.3,101.2,26,28.5,7.3,57,14.6,85.5,22,20.4,5.2,40.8,10.5,61.2,15.7,9.5,2.5,19.4,6,29.1,7.5s.8.2,1.2.3l-3.5-3.5c3.8,11,7.7,21.9,11.5,32.9.7,1.9,2.6,3.9,4.8,3.7,25.8-2.6,51.4-4.6,77.3-5.4,12-.4,24-1,36-1.1,3,0,6.4-.2,9.3.5s1.8.7,1.8.6c-.1-.3-.2,1.7-.5,2.7-3.4,9.2-12.9,17.1-19.4,24.1-8.4,9.1-16.8,18.2-25.2,27.3-10.1,10.9-20.2,21.9-30.5,32.7-10,10.5-21.1,19.8-31.8,29.7-16.8,15.5-33.2,31.4-50.6,46.2-30,25.6-61,49.9-93.8,71.9-33.2,22.3-67.8,42.4-101.7,63.7-24,15-47.1,31.8-72,45.2-37.7,20.3-78.1,36.3-119.9,45.7-45.6,10.3-92.2,12.3-138.8,10.7-44.2-1.6-88-6.2-131.4-15.5-13.7-2.9-27.4-6.3-40.9-10,1.2,1.2,2.3,2.3,3.5,3.5-19.8-75-33-151.6-39.3-228.9-6-74.2-8.1-148.7-8.6-223.1s.1-81.4,1.1-122.1c.2-6.4-9.8-6.4-10,0Z"/>
</g>
<path class="st2" d="M1053.6,1807.6c22.7,7.9,57.2,17.2,99.9,18.4,22.9.7,70.7,1.6,126.5-21.1,46.2-18.9,78.2-46,97.4-65.4,6.6,37.6,13.1,75.3,19.7,112.9l53.5-43.3,68.8-63,69.9-73.8,19.5-24.8-1.6-8.6-11.9-1.9-81,3.3-34.1,3.2-8.6-24.7-2.9-8.2-39.9,52.6-59.6,56.2-62.6,49.7-58.9,28.6-53.4,14.3-54.5,4.1c-28.7-2.8-57.4-5.7-86.1-8.5Z"/>
</g>
<g id="Layer_13">
<polygon class="st6" points="1781.2 528.4 1799.4 559.9 1806.9 553.5 1794 525.2 1781.2 528.4"/>
</g>
<g id="Layer_3">
<g>
<path class="st5" d="M703.7,1402.5s-1.9,38.3-3.9,44.5c-2,6.1-67.4,1-68.4-57.7-9.3,0-35.9-1.4-58.2-20.9-6.2-5.4-18.5-16.1-23-34.8-6-24.8,6.4-45.1,9.2-49.5-2.4-.1-46-3.3-66.9-42.4-14-26.2-12.2-58.3,4.6-83.2-26-10.7-44.3-34.6-47.5-62.2-4.7-40.3,25.4-66.2,27.6-68-7-5.7-19.2-17.4-26.6-36.3-6.7-17.2-6.1-31.8-5.6-41,.7-12.3,1.5-27.1,11.2-42.2,10.5-16.3,25.6-23.9,33.2-27.1-22.4-25.7-29-60.7-17.8-91.3,6.8-18.5,22.3-36.7,52.5-51.2-22.5-25.2-26.9-61.4-11.2-89.9,13.8-25.1,41.1-40.4,70.5-39.8-14.6-30-9.4-65.4,12.8-88.3,18.9-19.5,47.4-27.2,74.6-20.4-3-8.7-9.1-30-2-55.1,6.2-22,19.3-35.4,26.1-42.2,6.3-6.3,19.1-18.8,39.8-25.2,28.7-8.9,53.6-.4,62.3,3.1-.8-7.8-3.1-36.7,16.3-61.3,12.8-16.1,28.6-22.4,39.6-26.7,8.5-3.3,36.1-13.8,70.2-4.9,27.4,7.1,44.7,23,52.1,30.6,1.4-8.4,7.4-36.8,32.7-55.7,18-13.5,37-15.4,48-16.6,27.6-2.9,48.3,5.2,52.6,6.9,26.8,10.9,41.7,29.9,47.5,38.3,5.4-10.3,21.1-37.2,54.1-54.1,31.5-16.2,60.5-13.8,74.2-12.6,14.9,1.4,53.6,5,83.1,36.6,16.6,17.7,23.5,37.1,26.6,48.5,1.7-1.4,42.5-33,89.7-13.9,22.2,9,43.6,31,57.4,76.7,10-4.7,38.4-16.4,74-9.2,9.5,1.9,49.5,11.2,74.5,49.9,19.9,30.9,18.4,62.2,17.5,72.6,11.9,1.5,37.9,6.5,60.8,27.1,44.6,40.2,35.6,102.5,34.7,107.7,9.7,2.4,32.1,9.4,52.1,29.6,5.3,5.3,21,22.4,28,48.6,13.6,51.4-18.3,94.6-22.9,100.5,4.5,3.2,37.2,26.7,41.1,70.6,3.7,42.4-22.3,70.7-26.3,74.9,0,0,81.2,107.7-38.8,171.1,4.1,9.3,16.9,41.3,4.6,77.1-3,8.8-9.7,27.4-28.7,42-19.9,15.2-41.2,16.6-48.9,16.7,0,0,13.3,88.3-88.3,94,0,0-23.3,80.3-86.2,58.3-62.9-22-884.2-2.1-884.2-2.1Z"/>
<path class="st2" d="M698.7,1402.5c-.4,8.8-1,17.6-1.7,26.4-.4,4.8-.6,9.7-1.5,14.5s-.5,1.6-.4,1.9,1.4-1.7,1.4-1.8c0,.1.5,0,0,0s-1.2.3-1.6.4c.3,0,.3,0-.7,0s-1.4,0-2.1,0c-1.7,0-3.3,0-5-.3-3.5-.4-7.3-1.3-10.9-2.3-9.3-2.8-18.1-7.6-25-14.5-10.1-10.1-14.6-23.5-14.9-37.6,0-2.7-2.2-5-5-5-23.9-.2-46.5-9.6-62.9-27.2-18.2-19.7-18.9-48.3-4.8-70.5,2.1-3.4-.7-7.3-4.3-7.5-3.7-.2-6.6-.8-11-1.8-8.1-1.9-15.9-4.9-23.1-9-22.1-12.6-36.2-36-37.1-61.5-.5-16.3,4.3-32.1,13.2-45.7,1.4-2,.6-5.8-1.8-6.8-28.9-12.2-48.2-41.3-45.2-73s11.9-37.3,26.3-49.3c1.9-1.6,1.9-5.5,0-7.1-9.6-8-17.5-17.6-23-28.9-6.6-13.6-8.5-28.4-7.7-43.3s3-30.8,12.5-44,17.2-17.3,28.3-22,4.8-5.3,2.2-8.4c-18.9-22-26.5-52.5-18.4-80.6,7.5-25.8,28.7-42.7,52.1-54.1,3.1-1.5,3-5.6,1-7.9-19.1-21.8-25-54-12.2-80.4,12.5-25.9,39.5-41.1,67.9-40.7s5.9-4.2,4.3-7.5c-11.7-24.5-9.8-54.6,6.9-76.4s47.4-31.6,74.8-25,7.5-2.4,6.2-6.2c-9.6-27.7-5.4-58.4,12.9-81.6,16.3-20.6,39.1-36.4,65.9-38.3,14.1-1,28.1,1.4,41.2,6.6s6.7-1.8,6.3-4.8c-3.4-31.7,10.2-62.5,39.2-77.4,28-14.4,60.5-18.5,90.4-7.6,15.2,5.5,28.9,14.7,40.1,26.3s7.7,1.6,8.4-2.2c5.1-29.2,23.9-55.1,52.9-64.2,28.1-8.8,60.8-6.5,86.3,8.4,12.8,7.5,23.9,17.8,32.4,30,2,2.9,6.8,3.6,8.6,0,18.5-35.3,53.6-60.5,93.6-64.5,32.2-3.2,68.4,3.2,95,22.1,20.1,14.3,33.8,35.9,40.2,59.5,1.1,4,5.5,4.5,8.4,2.2-1.2,1-.1,0,.6-.4s2.1-1.5,3.2-2.2c3.5-2.2,7.1-4.3,10.7-6.1,11.3-5.6,23.8-9.2,36.4-9.7,26.3-1.2,49.9,10.6,65.3,31.6,10.4,14.2,17.3,30.7,22.4,47.4,1,3.3,4.4,4.4,7.3,3,25.3-11.8,54.8-14.1,81.5-5.8,31.8,9.9,58.5,33.4,70.3,64.9,5.9,15.9,8.1,33,6.6,50-.3,2.9,2.5,4.7,5,5,28.3,3.6,55.2,18.3,71.7,41.9,14,20,20,44.5,20.1,68.7s-.1,8.3-.5,12.4-.3,2.9-.4,4.3c-.2,1.3,0-.2,0,.3s0,.7-.2,1c-.4,2.6.6,5.4,3.5,6.2,26.7,6.7,50.1,23.7,64.6,47.1,18.6,30.1,19.1,66.4,4.8,98.4-4.1,9.1-9.1,17.9-15.2,25.9-1.7,2.3-.2,5.5,1.8,6.8,12.6,8.8,24.4,23.3,31.2,38.2,11.7,25.7,9.8,55.8-3.7,80.4-3.8,6.9-8.3,13.4-13.7,19.1s-2.1,4.3-.8,6.1c24.7,32.8,36.3,81.7,14.6,118.7-11.9,20.3-31.2,34.7-51.6,45.5-2.6,1.4-2.8,4.4-1.8,6.8,18.5,42.1,8.3,99.1-35.8,120.6-10.2,5-21.6,7.5-32.9,7.7s-5.3,3.1-4.8,6.3c-.4-2.5,0,.3,0,1.1.2,2.1.3,4.1.3,6.2,0,6.9-.5,13.2-1.8,19.7-4.1,19.6-15,36.7-32.4,47.1-15,9-32.5,12.5-49.7,13.5-2.2.1-4.2,1.5-4.8,3.7-8.4,28.8-32.2,61.9-66.2,58.1-9.1-1-17.7-4.7-26.8-6.1-9.2-1.3-18.5-2.1-27.8-2.8-28-2-56-2.8-84.1-3.5-38.4-.9-76.8-1.3-115.2-1.4-44.4-.2-88.8,0-133.2.2-46.6.3-93.2.7-139.7,1.3-44.5.5-88.9,1.2-133.4,1.9-38.1.6-76.1,1.3-114.2,2.1-27.8.5-55.6,1.1-83.5,1.7-13.3.3-26.5.4-39.8.9-.6,0-1.2,0-1.7,0-6.4.2-6.4,10.2,0,10,9.3-.2,18.6-.4,27.9-.6,25-.6,50.1-1.1,75.1-1.6,36.4-.7,72.8-1.4,109.2-2,43.6-.8,87.2-1.4,130.8-2,46.8-.6,93.6-1.1,140.5-1.5,45.6-.3,91.3-.5,136.9-.4,40.1,0,80.2.3,120.2,1.1,30.6.6,61.2,1.3,91.8,3.1,10.3.6,20.6,1.3,30.9,2.4,4.9.5,5.6.6,10.1,1.4,2.6.4,5.3.9,7.9,1.7,9.5,2.7,18.7,5.2,28.7,4.3,11-1,21.2-5.1,30-11.7,14.8-11.2,24.9-27.5,31.9-44.4s2.5-6.2,3.4-9.4l-4.8,3.7c29.7-1.8,59.8-11.1,78-36.1,10.8-14.8,15.6-33.4,15.9-51.6,0-4.2-.1-8.4-.7-12.6-1.6,2.1-3.2,4.2-4.8,6.3,26.6-.5,52.1-12.8,68.2-34.2,16-21.3,22.1-49.6,18.6-75.8-1.5-11.6-4.8-22.7-9.5-33.3l-1.8,6.8c34.6-18.5,63.9-47.7,67.7-88.4,2.4-25.9-5.6-52.1-17.8-74.6-2.8-5.1-5.8-10.2-9.3-14.9l-.8,6.1c14.7-15.4,24.4-36,27.2-57,3.9-29.3-5.8-58.3-25.2-80.3-5.3-6-11.3-11.4-17.8-16l1.8,6.8c15.6-20.5,25.5-46.5,26.8-72.2,1.6-34.3-14.3-68.4-40.6-90.2-13.5-11.2-29.4-19.4-46.4-23.6l3.5,6.2c7.9-49-11.9-102.7-56.6-127.3-13.6-7.5-28.4-11.9-43.7-13.9,1.7,1.7,3.3,3.3,5,5,3.3-37.3-11.2-75.5-39.8-100-22.5-19.3-52.2-30.3-82-29.8-17.9.3-35.6,4.6-51.8,12.1l7.3,3c-8.7-28.3-22.7-57.6-48.6-73.9-25.4-16-57.5-15.6-84.5-4-7.9,3.4-15.6,7.6-22.3,12.9l8.4,2.2c-6-22.1-17.9-42.5-35.1-57.8-16.2-14.4-36.4-23.6-57.6-27.9-40.3-8.2-82.9-3.9-116.6,21.5-15.7,11.8-28.8,27.2-37.9,44.6h8.6c-16.5-23.7-41.4-40.8-69.9-46.2-37.7-7-80.3,2.3-103.6,34.7-8.4,11.7-13.9,25.6-16.4,39.7l8.4-2.2c-25.6-26.4-62.4-39.5-98.9-34.4-32.4,4.4-66.3,21.2-80.3,52.1-6.8,15-9.3,31.8-7.5,48.2,2.1-1.6,4.2-3.2,6.3-4.8-29.4-11.6-63.5-9.1-89.8,8.9s-41.5,39.6-46.5,67.2c-3,16.5-1.5,33.6,4,49.5l6.2-6.2c-31.3-7.5-65.2,2.5-85.1,28.4-19.4,25.2-21.3,59.4-7.8,87.7l4.3-7.5c-24.9-.3-49.6,10-65.7,29.2-16.4,19.5-22.4,45.6-17,70.5,3.2,14.4,10.3,27.5,19.9,38.6l1-7.9c-26.3,12.8-49.3,32.5-57.1,61.5s.5,64.4,21.4,88.8l2.2-8.4c-22.4,9.4-40.1,27.7-45.5,51.9s-4.1,52.5,8,75.1c5.7,10.7,13.7,20.2,23,28v-7.1c-32.4,27.1-38.9,77-13.6,110.9s20.8,21.3,34.5,27.1l-1.8-6.8c-17.3,26.2-19.5,60.4-4.6,88.3,11.1,20.8,31.1,35.2,53.6,41.6,5.7,1.6,11.7,2.9,17.6,3.2l-4.3-7.5c-12,18.9-15.2,43-6.2,63.7,9.3,21.4,30.7,37.4,52.4,44.3,9.7,3.1,19.9,4.6,30.1,4.7-1.7-1.7-3.3-3.3-5-5,.4,14.9,4.7,29.3,14.4,40.8,7.6,9.2,18.1,15.6,29.2,19.7,7.8,2.8,16.7,4.8,25,4.1,2.8-.3,6.1-.8,8.1-2.9s2.7-8.8,3.1-12.6c1.3-11.9,1.9-23.9,2.5-35.8s-9.7-6.4-10,0Z"/>
</g>
</g>
<g id="Layer_2">
<g>
<path class="st0" d="M733.2,1060.7c-14.1-39.1-48-65.6-83.9-66.2-42.6-.7-71.5,35.2-75.6,40.3-7.6,9.6-12.1,19-14.8,25.8-6.5,13.2-15.8,36.3-17.6,66.5-.6,10.5-1.3,37.3,10,69,2.6,7.5,12.7,34.3,36.8,61.3,12.3,13.7,20.4,22.9,35.1,29.9,36.4,17.3,71.4,1.8,76.1-2.9,1.3-1.4,2.5-2.9,2.5-2.9,3.1-3.9,4.8-7.7,5.8-10.3-1,1.8-2,3.7-2.8,5.8-1.4,4.3-3,11.4-3.4,22.5-.2,10.2-.3,25.1,0,43.1.5,29.4,1,53,4.1,74.6,4.7,32.1,14.6,54.8,27.1,82.7,30.6,68.6,68.2,117.1,85.3,137.9,24,29.2,55.3,66.9,107.2,102.6,30,20.7,75.8,51.6,143.1,65.7,27.2,5.7,135.2,24.8,227.1-30,30.3-18.1,62.9-46.6,80-61.6,16.8-14.7,36.2-31.9,58.4-57.4,14.2-16.4,14-18.2,52.9-71.3,39.5-53.8,40.7-53.2,50-69.4,16.9-29.4,34.1-68.3,34.1-68.3,5.2-10.8,11.8-26.1,17.6-45,4.4-14.4,7.1-26.7,10-42.2,3.9-21.5,8.8-53,12.3-93.5,1.2-5.1,2.3-10.1,3.5-15.2,3.2-12.9,9.1-36.5,20.2-79,6.3-19.1,13.3-44.3,18.5-74.5,6.3-36.6,7.2-65,7.7-85,.6-21.5.3-48.8-2.5-80.3-.5-1.8-1-3.6-1.5-5.4,0,0-80.4,10-82-65.1-20.3,21.7-50.3,30.9-77.8,23.7-33.4-8.7-57.8-40.4-58.6-77.4-3,6.3-11.7,22.7-30.6,32.4-14.5,7.4-27.7,7.3-35.4,7.1-2.2,0-53.5-2-77.3-43.6-7.3-12.7-9.9-25.5-10.6-35.8-3.3,7.1-11.8,23.1-29.9,33.8-26.1,15.5-53,8.8-62.8,6.4-9.8-2.4-36.8-10.7-55-37.4-11.6-17-14.5-33.9-15.3-42.6-2.9,3.6-23.3,28.2-58.6,29.3-35.6,1.1-57.6-22.5-60.6-25.9-.1,3.7-1.8,40.7-34,62.6-34.5,23.5-72.3,8.2-74.9,7.1,1.2,6.8,7.5,48.1-20.8,84.4-23.3,30-55.2,37.4-63.8,39.1,1.6,7.1,11.6,56.7-21.3,97.7-19.1,23.8-43.2,33-54.1,36.4Z"/>
<path class="st2" d="M738,1059.4c-14.7-39.9-52.8-74.1-97.7-69.5-32.7,3.4-62.7,26.2-79,54.3-19.9,34.2-28.9,75.3-24,114.6,5.5,44.3,27.1,82.4,58,114.2,19.1,19.6,45.3,29.9,72.8,26.9,9.7-1.1,19.4-3.4,28.3-7.7,8-3.9,12.7-11.4,15.9-19.5s-6.4-8.7-9.1-3.9c-7.5,13.6-6.9,29.9-7,45s.2,40.1.9,60.1c.6,18.3,1.8,36.7,5.2,54.7,3.5,18.4,9.6,36,16.8,53.2,24.9,59.1,57.4,113.9,98.2,163.3,20.9,25.4,42.9,49.7,68,71.1,24.1,20.6,50.5,39,78,54.8,48.9,28.1,103.2,44,159.4,47.4,32,1.9,64.4,0,95.8-6.9,37.3-8.2,71.6-24,102.5-46.3,27.1-19.5,52.6-41.6,77.1-64.3,18.7-17.2,36.6-35.6,51.9-55.9,15.4-20.7,30.1-41.9,45.4-62.6,12.7-17.3,26.3-34.1,38.4-51.8,13.7-20.2,24.1-42.9,34.4-64.9,12.1-25.7,23.3-51.6,30-79.4,8.1-33.6,12.5-68.4,15.9-102.7,1.1-10.6,2.5-20.6,5.1-31,1-4.2,2.1-8.4,3.1-12.7,3.5-13.9,7.1-27.8,10.7-41.7,4.5-17.5,10-34.7,14.6-52.2s9.5-40.6,12.5-61.3c4.7-32.8,6.2-66.1,5.7-99.3-.1-9.2-.4-18.3-.9-27.5-.6-10.4-.6-21.2-3.5-31.3-.5-1.9-2.7-3.9-4.8-3.7-23.3,2.8-52.2-3.6-66.4-23.7-7.5-10.7-10.3-23.6-10.6-36.4-.1-4.2-5.5-6.8-8.5-3.5-21.5,22.5-55.6,31.9-84.6,18.3-26.3-12.4-42.4-39.6-43.2-68.4-.1-4.6-7.1-7.2-9.3-2.5-5.8,12.2-14.8,22.8-26.7,29.4-11.3,6.4-24.3,8.4-37.1,7.5-19.5-1.3-40.7-9-55.7-22.3-15-13.3-23.6-32-25.2-52-.3-4.4-7-7.4-9.3-2.5-5.3,11.3-13,21.5-23.2,28.8s-31.4,13.7-48.6,11.9c-22.4-2.3-44.5-12.1-59.9-28.8s-20.1-31-22-49.2-5.5-7.3-8.5-3.5c-13.3,16.5-33.8,27.1-55,27.8s-42.7-8.6-57.1-24.4c-3-3.3-8.4-.6-8.5,3.5-.4,14-5.5,28.4-13.3,40-15.2,22.6-42.2,33.3-68.8,30.1s-14-2.4-20.5-5.1-6.7,2.9-6.2,6.2c2.7,16.1,1.1,35.1-4.4,51.3-8.8,26.2-28.7,47.1-53.6,58.6-7.3,3.4-15.1,5.9-23.1,7.5s-4,3.7-3.5,6.2c9.2,42.4-6.1,89.1-42.6,113.8-9,6.1-18.9,10.9-29.3,14.1s-3.5,11.6,2.7,9.6c24.1-7.6,45.4-22.3,60.3-42.8,15.7-21.6,22.4-48.7,21.4-75.2-.3-7.5-1.1-14.9-2.7-22.2l-3.5,6.2c20.2-4.1,39.3-13.9,54.4-27.8,21.5-19.8,33.6-47.6,35.1-76.6.4-8.5,0-17-1.4-25.3l-6.2,6.2c18.3,7.7,41,8.2,59.7,1.8s44.5-29.8,52-55.5c2-6.7,3.3-13.9,3.5-20.9-2.8,1.2-5.7,2.4-8.5,3.5,28.3,31.3,77.4,36,111.1,10.8,5.5-4.1,10.7-8.8,15.1-14.2-2.8-1.2-5.7-2.4-8.5-3.5,3.6,34.4,24.6,64.5,56.3,78.6,25.9,11.5,57.3,14.3,82.7.2,14.7-8.2,26.3-21.4,33.3-36.5-3.1-.8-6.2-1.7-9.3-2.5,1.5,19.7,8.7,38.5,22.2,53.2s23.3,19.1,37.4,24.3c20.8,7.7,45.2,10.2,66.1,1.5,16.6-7,29.9-20.4,37.6-36.6-3.1-.8-6.2-1.7-9.3-2.5.7,25.4,11.8,50.3,31.7,66.5,20.5,16.7,47.8,22.4,73.3,15.1,15.2-4.4,28.9-13,39.8-24.4-2.8-1.2-5.7-2.4-8.5-3.5.6,23.3,9.3,45.4,29.6,58.2,13.8,8.7,30.5,12.1,46.6,12.3s7.2,0,10.7-.4c-1.6-1.2-3.2-2.4-4.8-3.7,2.9,10.3,2.8,21.6,3.3,32.3.4,9.3.7,18.6.8,27.9.1,14.9-.2,29.8-1,44.7-1.9,38-7.7,75.6-17.7,112.3-4.7,17.2-9.9,34.2-14.4,51.5-3.4,13.2-6.8,26.5-10.1,39.7-1,4.2-2.1,8.3-3.1,12.5s-2.3,9.3-3.3,13.9c-1.1,5.1-1.2,10.5-1.7,15.7-1.7,18.2-4,36.4-6.7,54.5-5.2,34.3-12.3,68.1-26.2,100.1-10.3,23.6-21.4,47-33.7,69.6-6.9,12.8-14.6,24.4-23.3,36-18.7,24.9-37.3,50-55.5,75.3-8.8,12.3-17.1,24.5-26.5,35.5-21.2,24.8-45.2,46.7-69.8,68-27.5,23.8-56.2,47.4-89.2,63.3-31.8,15.3-66.9,23.4-102.1,26-53,3.8-107.3-3.7-156.9-23.2-27.6-10.9-53.3-25.8-77.8-42.4-29.5-20-56.7-42.5-81.2-68.5-38.8-41.3-72.7-87.4-99.5-137.3-9.5-17.6-17.9-35.8-25.9-54.2-7.3-17-13.7-34.3-17.5-52.4-3.7-17.4-4.9-35.2-5.6-53-.7-19.9-1.1-39.8-1-59.7,0-14.2-1.5-30.8,5.6-43.7l-9.1-3.9c-1.5,4-3.9,8-7,11s-3.2,2.1-5,2.9c-7,3.3-14.8,5.2-22.5,6-22.4,2.5-45.1-4.4-61.6-19.9-29-27.2-50.3-62.3-57.7-101.5-3.2-16.9-3.8-34.3-1.8-51.4,2.3-19,8.3-36.6,16-53.9,12-27,33.2-50.5,62-59.9,44.9-14.7,88,17.4,103.2,58.8,2.2,6,11.9,3.4,9.6-2.7Z"/>
</g>
<path class="st2" d="M1672,913.5c-4.2,4.9-10.8,7.9-16.8,9.8-6.1,1.9-3.5,11.6,2.7,9.6s15.9-6.2,21.2-12.3c4.1-4.9-2.9-12-7.1-7.1h0Z"/>
<path class="st2" d="M741.6,1075.3c-.7-5.4-1.7-10.9-3.6-16s-3.4-4.3-6.2-3.5c-2.4.7-4.5,3.6-3.5,6.2s1.9,6.1,2.5,9.2.4,2.2.6,3.4.1.9.2,1.3-.2-1.2,0-.6c.3,2.7,2.1,5,5,5s5.3-2.3,5-5h0Z"/>
</g>
</svg>